<svg width="29" height="29" viewBox="0 0 29 29" fill="none" xmlns="http://www.w3.org/2000/svg">
<path d="M13.0075 0.680824C8.50928 1.13752 4.56769 3.52552 2.17236 7.2616C-0.605309 11.5864 -0.729011 17.2208 1.85749 21.6391C3.22383 23.9666 5.21993 25.8759 7.5759 27.1085C9.58324 28.1594 11.7986 28.7371 13.8791 28.7591L14.6382 28.7646L14.655 23.3008L14.6663 17.8425H13.12H11.5737V16.0818V14.3211L13.1088 14.3101L14.6382 14.2936L14.6719 12.4503C14.7 10.7776 14.7113 10.5685 14.8237 10.1668C15.2567 8.64818 16.2856 7.63575 17.8432 7.21207C18.248 7.10203 18.4279 7.09102 19.6144 7.09102C20.3397 7.08552 21.1831 7.10753 21.4868 7.13504L22.0322 7.17906V8.76373V10.3484L20.6996 10.3704C19.367 10.3869 19.3613 10.3869 19.0689 10.5355C18.4504 10.8546 18.3773 11.1132 18.3773 12.929V14.3211H20.1485C21.1213 14.3211 21.9197 14.3376 21.9197 14.3596C21.9197 14.3871 21.8185 15.1574 21.6948 16.0763C21.5711 17.0007 21.4699 17.771 21.4699 17.7985C21.4699 17.8205 20.7727 17.8425 19.9236 17.8425H18.3773V23.0422C18.3773 25.9034 18.3886 28.2419 18.3998 28.2419C18.5067 28.2419 19.8449 27.7467 20.3509 27.5211C22.0434 26.7618 23.3535 25.8484 24.703 24.4949C25.8782 23.3119 26.6035 22.2939 27.3514 20.7863C28.0148 19.4437 28.4703 17.9471 28.6783 16.4119C28.7683 15.7297 28.7683 13.6113 28.6783 12.973C28.206 9.72113 26.8341 6.98098 24.5568 4.75254C22.3246 2.57362 19.5469 1.20905 16.3812 0.752354C15.6896 0.653313 13.6935 0.609294 13.0075 0.680824Z" fill="white"/>
</svg>
