<svg id="svg" version="1.1" xmlns="http://www.w3.org/2000/svg" xmlns:xlink="http://www.w3.org/1999/xlink" width="400" height="226.77165354330708" viewBox="0, 0, 400,226.77165354330708"><g id="svgg"><path id="path0" d="M163.471 3.649 C 160.430 3.907,159.279 4.250,161.202 4.325 C 162.062 4.359,162.313 4.418,161.883 4.485 C 161.282 4.579,161.256 4.613,161.656 4.776 C 162.078 4.946,162.072 4.961,161.572 4.976 C 161.178 4.987,161.092 5.068,161.250 5.275 C 161.555 5.675,161.637 55.388,161.336 57.659 C 160.934 60.698,159.799 63.482,158.401 64.859 C 157.093 66.147,155.873 67.692,155.868 68.066 C 155.864 68.368,155.839 68.368,155.644 68.066 C 155.497 67.839,155.423 67.820,155.420 68.009 C 155.418 68.165,155.264 68.293,155.077 68.293 C 154.775 68.293,154.736 73.473,154.736 113.556 C 154.736 153.640,154.775 158.820,155.077 158.820 C 155.264 158.820,155.418 158.948,155.420 159.104 C 155.423 159.293,155.497 159.274,155.644 159.047 C 155.839 158.745,155.864 158.745,155.867 159.049 C 155.871 159.406,157.210 161.059,158.615 162.442 C 159.561 163.373,160.203 164.687,160.919 167.156 L 161.429 168.917 161.429 190.698 C 161.429 210.548,161.394 212.650,161.033 214.407 C 160.814 215.468,160.607 217.071,160.571 217.969 C 160.536 218.868,160.434 219.675,160.346 219.764 C 160.258 219.852,160.282 220.041,160.401 220.184 C 160.541 220.352,160.500 220.669,160.285 221.082 C 159.972 221.686,159.979 221.714,160.408 221.602 C 160.658 221.537,160.806 221.576,160.736 221.689 C 160.666 221.802,160.793 221.902,161.019 221.910 C 161.383 221.925,161.378 221.947,160.976 222.107 L 160.522 222.287 160.976 222.424 C 161.225 222.499,160.817 222.514,160.068 222.456 C 158.513 222.338,158.744 222.582,160.635 223.056 C 162.839 223.609,223.817 223.511,225.628 222.952 C 228.474 222.074,230.274 220.715,230.940 218.943 C 231.104 218.507,231.433 217.731,231.671 217.218 C 232.092 216.312,232.104 215.184,232.104 176.776 C 232.104 154.746,232.191 137.266,232.300 137.266 C 232.569 137.266,233.693 138.410,233.693 138.684 C 233.693 139.133,235.497 142.954,236.171 143.935 C 236.554 144.491,236.966 145.205,237.086 145.522 C 237.206 145.838,237.879 147.046,238.581 148.205 C 239.282 149.364,240.106 150.969,240.410 151.772 C 240.715 152.575,241.456 154.055,242.058 155.062 C 242.659 156.068,243.485 157.576,243.893 158.413 C 244.301 159.249,244.960 160.321,245.358 160.795 C 245.755 161.269,246.222 162.116,246.395 162.677 C 246.960 164.514,247.726 166.077,248.559 167.093 C 249.008 167.642,249.733 168.940,250.169 169.978 C 250.605 171.017,251.265 172.247,251.636 172.712 C 252.008 173.178,252.667 174.480,253.102 175.605 C 253.963 177.837,254.134 178.143,255.815 180.469 C 259.418 185.458,259.273 185.419,274.986 185.538 C 292.298 185.668,291.828 185.787,296.050 180.211 C 297.167 178.736,297.781 177.669,298.138 176.582 C 298.762 174.682,299.055 174.096,299.816 173.227 C 300.144 172.853,300.737 171.883,301.133 171.072 C 301.529 170.261,302.070 169.240,302.335 168.803 C 303.878 166.260,304.456 165.170,304.783 164.186 C 304.985 163.581,305.671 162.219,306.310 161.158 C 306.948 160.098,307.653 158.700,307.876 158.051 C 308.099 157.402,308.771 156.110,309.368 155.179 C 309.965 154.249,310.710 152.930,311.024 152.247 C 311.337 151.564,311.930 150.441,312.341 149.751 C 312.752 149.061,313.461 147.629,313.916 146.568 C 314.372 145.508,314.969 144.334,315.244 143.959 C 315.519 143.585,316.318 142.202,317.020 140.886 C 317.722 139.570,318.506 138.304,318.762 138.072 L 319.229 137.649 319.229 176.654 C 319.229 199.910,319.313 215.932,319.438 216.337 C 320.665 220.305,321.929 221.700,325.355 222.867 L 326.829 223.369 357.232 223.438 C 378.363 223.485,388.188 223.430,389.450 223.258 C 393.091 222.759,394.990 221.276,395.977 218.161 L 396.483 216.563 396.483 113.443 L 396.483 10.323 395.956 8.800 C 394.666 5.077,392.908 4.050,387.066 3.610 C 381.574 3.196,327.852 3.466,325.984 3.917 C 321.961 4.888,320.423 6.316,319.037 10.370 C 318.772 11.144,318.057 12.472,317.447 13.320 C 316.838 14.167,316.229 15.192,316.095 15.596 C 315.961 16.000,315.555 16.766,315.194 17.297 C 314.354 18.535,312.877 21.289,312.871 21.632 C 312.864 21.977,312.130 23.479,311.412 24.617 C 310.732 25.694,309.472 28.278,309.472 28.595 C 309.472 28.718,308.896 29.813,308.192 31.029 C 307.487 32.244,306.745 33.698,306.542 34.260 C 306.339 34.821,305.598 36.302,304.896 37.550 C 304.195 38.798,303.492 40.227,303.335 40.726 C 303.178 41.225,302.827 41.991,302.554 42.428 C 301.544 44.045,300.220 46.677,300.068 47.367 C 299.982 47.758,299.733 48.313,299.514 48.600 C 298.895 49.411,297.313 52.461,296.998 53.449 C 296.842 53.939,296.430 54.799,296.081 55.360 C 295.164 56.838,293.817 59.557,293.817 59.931 C 293.817 60.107,293.678 60.452,293.507 60.698 C 292.674 61.899,290.770 65.653,290.567 66.494 C 290.489 66.815,290.168 67.458,289.853 67.922 C 289.537 68.387,289.280 68.815,289.280 68.874 C 289.280 68.934,289.043 69.363,288.753 69.829 C 288.463 70.294,287.945 71.385,287.601 72.253 C 287.257 73.121,286.795 74.091,286.574 74.408 C 286.037 75.180,284.289 78.715,284.284 79.039 C 284.281 79.181,283.880 79.960,283.392 80.771 C 282.341 82.518,281.112 84.980,281.112 85.337 C 281.112 85.476,280.754 86.178,280.318 86.897 C 279.881 87.616,279.524 88.278,279.524 88.367 C 279.524 88.456,279.317 88.819,279.065 89.173 C 278.813 89.527,278.454 90.258,278.268 90.796 C 277.741 92.321,277.214 93.196,276.676 93.441 C 275.884 93.802,274.052 91.332,273.042 88.540 C 272.572 87.244,271.931 85.972,271.453 85.388 C 271.011 84.849,270.415 83.716,270.127 82.869 C 269.496 81.015,268.841 79.697,268.114 78.816 C 267.507 78.081,266.928 76.993,266.462 75.710 C 266.289 75.234,265.696 74.162,265.143 73.327 C 264.591 72.492,263.904 71.146,263.617 70.335 C 263.330 69.524,262.733 68.264,262.291 67.535 C 260.997 65.404,260.955 65.321,260.174 63.292 C 259.764 62.226,259.104 60.950,258.707 60.456 C 258.310 59.962,257.673 58.695,257.293 57.640 C 256.592 55.700,256.196 54.936,255.464 54.112 C 255.242 53.863,254.604 52.616,254.045 51.342 C 253.487 50.067,252.729 48.638,252.362 48.165 C 251.995 47.693,251.298 46.438,250.814 45.377 C 250.331 44.317,249.646 43.017,249.294 42.490 C 248.941 41.962,248.280 40.635,247.824 39.540 C 247.368 38.445,246.555 36.838,246.016 35.967 C 245.478 35.097,245.037 34.309,245.037 34.216 C 245.037 34.123,244.782 33.488,244.470 32.806 C 244.158 32.124,243.902 31.500,243.902 31.420 C 243.902 31.340,243.558 30.746,243.136 30.101 C 242.445 29.042,240.726 25.467,240.726 25.087 C 240.726 25.002,240.315 24.328,239.813 23.588 C 239.311 22.849,238.835 22.063,238.755 21.842 C 238.676 21.621,237.998 20.371,237.249 19.063 C 236.500 17.754,235.638 16.070,235.335 15.319 C 235.031 14.568,234.231 12.968,233.557 11.764 C 232.883 10.560,232.331 9.498,232.331 9.404 C 232.331 7.221,229.008 4.564,225.354 3.827 C 223.776 3.509,167.055 3.345,163.471 3.649 " stroke="none" fill="#cc0404" fill-rule="evenodd"></path><path id="path1" d="M96.427 3.637 C 90.032 3.881,88.406 4.154,84.886 5.573 C 82.981 6.341,82.034 6.562,78.616 7.036 C 76.305 7.356,74.905 7.808,73.308 8.748 C 71.977 9.532,70.679 9.982,68.415 10.442 C 67.671 10.594,66.088 11.230,64.898 11.856 C 63.708 12.481,61.843 13.326,60.753 13.732 C 59.664 14.138,58.234 14.828,57.576 15.265 C 56.376 16.062,53.738 17.470,53.447 17.470 C 53.158 17.470,47.544 21.144,46.171 22.231 C 45.423 22.824,44.386 23.524,43.868 23.786 C 42.803 24.326,40.723 25.869,37.890 28.222 C 35.355 30.327,25.424 40.260,23.699 42.415 C 22.956 43.343,22.087 44.391,21.769 44.742 C 21.450 45.094,20.939 45.798,20.634 46.307 C 20.329 46.816,19.755 47.657,19.359 48.176 C 18.963 48.696,18.146 49.965,17.544 50.997 C 16.942 52.029,15.964 53.558,15.372 54.394 C 14.779 55.231,14.294 56.007,14.294 56.120 C 14.294 56.534,12.879 59.093,12.153 59.992 C 11.192 61.181,11.023 61.521,10.331 63.638 C 10.017 64.603,9.390 65.895,8.938 66.510 C 8.128 67.614,7.209 69.925,6.906 71.620 C 6.820 72.098,6.391 73.089,5.951 73.822 C 4.816 75.715,4.126 78.148,3.726 81.679 C 3.423 84.351,3.297 84.860,2.740 85.671 C 0.744 88.574,0.242 94.136,0.235 113.443 C 0.229 131.670,0.745 137.456,2.688 140.922 C 3.179 141.798,3.447 142.691,3.633 144.073 C 4.144 147.877,4.589 149.283,5.893 151.220 C 6.229 151.719,6.686 152.893,6.907 153.829 C 7.551 156.552,8.165 158.159,9.105 159.583 C 9.588 160.315,9.983 161.030,9.984 161.172 C 9.984 161.313,10.240 161.932,10.551 162.546 C 10.863 163.159,11.117 163.779,11.117 163.921 C 11.117 164.064,11.556 164.838,12.092 165.641 C 12.627 166.444,13.206 167.459,13.378 167.896 C 13.549 168.332,13.979 169.129,14.332 169.665 C 14.685 170.202,14.974 170.715,14.974 170.805 C 14.974 170.895,15.266 171.324,15.623 171.758 C 15.980 172.192,16.503 173.006,16.787 173.568 C 17.070 174.129,17.775 175.201,18.353 175.950 C 18.931 176.699,19.811 177.911,20.309 178.643 C 20.806 179.376,21.470 180.193,21.784 180.459 C 22.098 180.724,22.605 181.299,22.911 181.736 C 23.217 182.172,23.608 182.674,23.779 182.850 C 23.950 183.026,24.327 183.536,24.616 183.984 C 24.905 184.432,25.432 185.122,25.787 185.517 C 26.142 185.912,26.687 186.662,26.999 187.183 C 28.216 189.214,34.841 195.541,39.079 198.719 C 41.292 200.379,43.160 201.828,43.229 201.940 C 43.551 202.461,48.726 206.115,49.873 206.632 C 50.582 206.951,51.953 207.761,52.919 208.432 C 53.886 209.102,55.468 210.034,56.436 210.503 C 57.404 210.972,58.862 211.732,59.676 212.191 C 60.490 212.651,62.123 213.284,63.306 213.597 C 64.489 213.911,66.222 214.564,67.158 215.048 C 69.819 216.425,72.617 217.126,75.483 217.133 C 76.886 217.136,78.456 217.562,80.367 218.459 C 82.488 219.454,84.191 219.805,88.259 220.086 C 94.566 220.521,95.594 220.678,97.729 221.538 C 102.891 223.615,99.581 223.515,164.606 223.565 C 201.391 223.594,211.020 223.564,191.605 223.482 C 164.391 223.368,161.310 223.318,160.215 222.979 C 158.535 222.460,158.497 222.312,160.080 222.458 C 160.951 222.539,161.269 222.512,160.976 222.383 L 160.522 222.183 160.976 222.065 C 161.367 221.963,161.373 221.944,161.019 221.921 C 160.793 221.906,160.666 221.802,160.736 221.689 C 160.806 221.576,160.658 221.537,160.408 221.602 C 159.979 221.714,159.972 221.686,160.285 221.082 C 160.500 220.669,160.541 220.352,160.401 220.184 C 160.282 220.041,160.258 219.852,160.346 219.764 C 160.434 219.675,160.536 218.868,160.571 217.969 C 160.607 217.071,160.814 215.468,161.033 214.407 C 161.394 212.650,161.429 210.548,161.429 190.698 L 161.429 168.917 160.919 167.156 C 160.203 164.687,159.561 163.373,158.615 162.442 C 157.210 161.059,155.871 159.406,155.867 159.049 C 155.864 158.745,155.839 158.745,155.644 159.047 C 155.497 159.274,155.423 159.293,155.420 159.104 C 155.418 158.948,155.264 158.820,155.077 158.820 C 154.889 158.820,154.736 158.667,154.736 158.480 C 154.736 158.181,152.931 158.137,139.932 158.119 C 131.790 158.107,122.779 158.030,119.909 157.947 L 114.691 157.797 112.535 156.740 C 110.986 155.979,109.727 155.554,108.056 155.227 C 105.557 154.737,105.410 154.677,102.666 153.030 C 96.841 149.535,96.079 148.965,92.796 145.650 C 88.818 141.633,88.126 140.742,87.252 138.514 C 86.811 137.391,86.104 136.072,85.681 135.583 C 84.982 134.776,84.175 132.488,84.175 131.315 C 84.175 130.629,83.219 128.119,82.533 127.004 L 81.817 125.841 81.615 121.287 C 81.504 118.782,81.471 113.017,81.542 108.476 L 81.670 100.220 82.547 98.380 C 83.631 96.104,84.070 94.782,84.508 92.473 C 84.705 91.431,85.077 90.334,85.392 89.864 C 85.691 89.418,86.379 88.287,86.920 87.351 C 87.461 86.415,88.393 85.003,88.992 84.213 C 89.591 83.423,90.227 82.504,90.405 82.171 C 90.853 81.335,94.391 77.967,96.540 76.333 C 97.453 75.638,101.784 72.880,102.708 72.405 C 102.980 72.265,103.950 71.993,104.863 71.802 C 105.776 71.610,107.521 70.987,108.742 70.417 C 111.842 68.970,111.493 68.989,134.373 68.981 C 152.319 68.974,154.736 68.933,154.736 68.633 C 154.736 68.446,154.889 68.293,155.077 68.293 C 155.264 68.293,155.418 68.165,155.420 68.009 C 155.423 67.820,155.497 67.839,155.644 68.066 C 155.839 68.368,155.864 68.368,155.868 68.066 C 155.873 67.692,157.093 66.147,158.401 64.859 C 159.799 63.482,160.934 60.698,161.336 57.659 C 161.637 55.388,161.555 5.675,161.250 5.275 C 161.092 5.068,161.178 4.987,161.572 4.976 C 162.072 4.961,162.078 4.946,161.656 4.776 C 161.256 4.613,161.282 4.579,161.883 4.485 C 162.313 4.418,162.062 4.359,161.202 4.325 C 159.272 4.249,160.440 3.904,163.471 3.655 C 166.246 3.426,102.398 3.410,96.427 3.637 M221.724 3.566 C 222.067 3.618,222.629 3.618,222.972 3.566 C 223.315 3.514,223.035 3.471,222.348 3.471 C 221.662 3.471,221.381 3.514,221.724 3.566 M328.815 3.566 C 329.158 3.618,329.719 3.618,330.062 3.566 C 330.406 3.514,330.125 3.471,329.438 3.471 C 328.752 3.471,328.471 3.514,328.815 3.566 M386.334 3.568 C 386.742 3.618,387.355 3.617,387.695 3.565 C 388.036 3.514,387.703 3.472,386.954 3.474 C 386.205 3.475,385.926 3.517,386.334 3.568 M229.268 5.135 C 229.393 5.244,229.903 5.690,230.402 6.127 L 231.309 6.920 230.629 6.163 C 230.255 5.747,229.745 5.300,229.495 5.171 C 229.246 5.042,229.144 5.025,229.268 5.135 M321.235 5.956 C 320.469 6.657,319.313 8.554,319.523 8.764 C 319.577 8.819,319.759 8.528,319.927 8.118 C 320.095 7.709,320.684 6.889,321.236 6.296 C 322.397 5.050,322.397 4.891,321.235 5.956 M395.828 8.508 C 396.014 9.342,396.144 9.524,396.139 8.943 C 396.138 8.704,396.032 8.355,395.906 8.168 C 395.737 7.919,395.716 8.011,395.828 8.508 M233.693 12.025 C 233.947 12.524,234.207 12.933,234.269 12.933 C 234.331 12.933,234.174 12.524,233.919 12.025 C 233.665 11.526,233.405 11.117,233.343 11.117 C 233.281 11.117,233.438 11.526,233.693 12.025 M317.207 13.216 C 316.338 14.619,316.213 14.843,316.420 14.634 C 316.940 14.108,317.876 12.706,317.707 12.706 C 317.605 12.706,317.380 12.935,317.207 13.216 M315.864 15.641 C 315.732 16.020,315.326 16.766,314.962 17.297 C 314.597 17.829,314.080 18.724,313.812 19.285 C 313.262 20.437,313.404 20.257,314.703 18.151 C 315.733 16.482,316.354 15.201,316.205 15.052 C 316.150 14.997,315.996 15.262,315.864 15.641 M236.220 17.243 C 236.408 17.555,237.007 18.600,237.552 19.564 C 238.097 20.529,238.577 21.283,238.620 21.240 C 238.721 21.139,236.460 17.203,236.129 16.903 C 235.991 16.778,236.032 16.931,236.220 17.243 M239.737 23.486 C 240.194 24.174,240.616 24.690,240.674 24.631 C 240.781 24.525,239.184 22.235,239.003 22.235 C 238.950 22.235,239.280 22.798,239.737 23.486 M311.911 23.387 C 311.568 24.001,311.334 24.504,311.392 24.504 C 311.547 24.504,312.718 22.455,312.619 22.356 C 312.572 22.310,312.254 22.774,311.911 23.387 M240.739 25.029 C 240.720 25.306,241.682 27.480,241.781 27.382 C 241.827 27.335,241.615 26.745,241.309 26.070 C 241.003 25.396,240.746 24.927,240.739 25.029 M308.614 29.886 C 308.205 30.578,307.903 31.177,307.943 31.218 C 307.983 31.258,308.354 30.727,308.767 30.037 C 309.179 29.347,309.481 28.748,309.438 28.705 C 309.395 28.662,309.024 29.194,308.614 29.886 M242.448 29.041 C 242.566 29.229,242.900 29.765,243.191 30.233 C 243.482 30.701,243.768 31.083,243.826 31.083 C 244.006 31.083,242.916 29.258,242.565 28.972 C 242.294 28.750,242.273 28.763,242.448 29.041 M307.317 32.218 C 307.123 32.592,307.016 32.898,307.079 32.898 C 307.141 32.898,307.350 32.592,307.544 32.218 C 307.738 31.843,307.845 31.537,307.782 31.537 C 307.720 31.537,307.511 31.843,307.317 32.218 M245.607 35.261 C 245.825 35.625,246.205 36.263,246.450 36.679 C 246.696 37.096,246.944 37.436,247.002 37.436 C 247.161 37.436,246.216 35.816,245.679 35.167 L 245.210 34.600 245.607 35.261 M305.023 36.876 C 304.816 37.192,304.688 37.492,304.738 37.542 C 304.789 37.593,305.002 37.334,305.212 36.968 C 305.680 36.152,305.541 36.085,305.023 36.876 M247.768 39.282 C 247.763 39.361,247.909 39.770,248.091 40.189 C 248.273 40.609,248.423 40.800,248.423 40.613 C 248.424 40.286,247.784 38.987,247.768 39.282 M248.579 41.350 C 248.670 41.506,249.012 42.042,249.339 42.541 C 249.667 43.040,250.331 44.317,250.814 45.377 C 251.298 46.438,251.969 47.663,252.305 48.100 C 252.641 48.537,253.130 49.302,253.391 49.801 C 253.652 50.301,253.870 50.627,253.875 50.528 C 253.891 50.239,253.207 48.981,252.431 47.873 C 252.037 47.311,251.362 46.086,250.931 45.150 C 250.195 43.554,248.719 41.066,248.508 41.066 C 248.456 41.066,248.488 41.194,248.579 41.350 M302.158 42.711 C 301.670 43.458,300.764 45.303,301.016 45.037 C 301.295 44.742,302.697 42.201,302.581 42.201 C 302.531 42.201,302.341 42.431,302.158 42.711 M299.585 47.986 C 299.331 48.532,299.216 48.922,299.330 48.852 C 299.562 48.709,300.238 47.184,300.121 47.068 C 300.080 47.026,299.838 47.439,299.585 47.986 M297.788 51.276 C 297.594 51.651,297.487 51.957,297.549 51.957 C 297.612 51.957,297.821 51.651,298.015 51.276 C 298.208 50.902,298.316 50.596,298.253 50.596 C 298.191 50.596,297.981 50.902,297.788 51.276 M254.566 52.525 C 254.566 52.782,255.053 53.585,255.816 54.585 C 256.229 55.125,256.688 55.936,256.837 56.386 C 256.985 56.837,257.154 57.159,257.211 57.102 C 257.402 56.911,256.684 55.475,255.619 53.920 C 255.040 53.074,254.566 52.446,254.566 52.525 M296.132 54.922 C 295.850 55.412,295.665 55.814,295.721 55.814 C 295.877 55.814,296.830 54.214,296.732 54.116 C 296.685 54.068,296.415 54.431,296.132 54.922 M294.838 57.175 C 294.522 57.799,294.315 58.310,294.377 58.310 C 294.439 58.310,294.749 57.799,295.065 57.175 C 295.381 56.551,295.589 56.041,295.527 56.041 C 295.464 56.041,295.155 56.551,294.838 57.175 M258.448 60.088 C 258.746 60.505,259.168 61.117,259.386 61.449 C 259.604 61.782,259.783 61.948,259.783 61.820 C 259.785 61.525,259.168 60.632,258.456 59.898 L 257.906 59.331 258.448 60.088 M292.501 61.985 C 292.352 62.135,292.229 62.341,292.229 62.444 C 292.229 62.546,291.989 63.010,291.695 63.476 C 291.401 63.941,291.091 64.577,291.006 64.889 C 290.897 65.292,290.977 65.225,291.283 64.663 C 291.521 64.226,291.981 63.383,292.306 62.791 C 292.923 61.666,292.955 61.531,292.501 61.985 M260.148 63.152 C 260.350 63.747,260.556 64.193,260.605 64.144 C 260.723 64.026,260.230 62.566,259.978 62.289 C 259.869 62.169,259.945 62.557,260.148 63.152 M261.670 66.478 C 261.976 66.914,262.494 67.781,262.820 68.404 C 263.147 69.027,263.415 69.442,263.415 69.327 C 263.415 68.885,262.491 67.238,261.817 66.478 L 261.113 65.683 261.670 66.478 M289.713 67.782 C 288.899 69.116,288.066 70.694,288.286 70.487 C 288.465 70.318,289.056 69.349,290.072 67.555 C 290.603 66.619,290.310 66.804,289.713 67.782 M263.650 70.365 C 263.645 70.445,263.791 70.853,263.973 71.273 C 264.155 71.693,264.305 71.883,264.305 71.696 C 264.306 71.369,263.666 70.070,263.650 70.365 M287.728 71.365 C 287.583 71.684,287.469 72.067,287.473 72.217 C 287.478 72.367,287.633 72.143,287.817 71.718 C 288.205 70.825,288.123 70.499,287.728 71.365 M265.227 73.436 C 265.736 74.206,266.312 75.304,266.506 75.875 C 266.701 76.446,266.943 76.965,267.044 77.027 C 267.246 77.152,266.600 75.381,266.051 74.305 C 265.859 73.931,265.388 73.267,265.002 72.830 C 264.426 72.177,264.466 72.285,265.227 73.436 M286.603 73.980 C 286.321 74.471,286.135 74.872,286.191 74.872 C 286.348 74.872,287.301 73.272,287.203 73.174 C 287.156 73.127,286.886 73.489,286.603 73.980 M285.211 76.431 C 284.263 78.308,284.338 78.510,285.311 76.703 C 285.744 75.901,286.054 75.202,286.002 75.149 C 285.949 75.096,285.593 75.673,285.211 76.431 M267.888 78.511 C 268.165 78.825,268.699 79.641,269.075 80.324 C 269.451 81.007,269.760 81.463,269.761 81.339 C 269.765 80.928,268.470 78.852,267.922 78.391 L 267.385 77.939 267.888 78.511 M283.238 80.715 C 282.899 81.307,282.517 81.946,282.390 82.133 C 282.183 82.435,282.196 82.435,282.506 82.133 C 282.906 81.743,284.138 79.637,283.967 79.637 C 283.905 79.637,283.576 80.122,283.238 80.715 M271.499 85.423 C 271.973 86.047,272.390 86.600,272.425 86.652 C 272.461 86.704,272.490 86.652,272.489 86.538 C 272.489 86.424,272.072 85.871,271.563 85.309 L 270.638 84.288 271.499 85.423 M279.872 87.257 C 279.660 87.580,279.526 87.883,279.574 87.931 C 279.622 87.979,279.840 87.715,280.059 87.344 C 280.548 86.516,280.402 86.449,279.872 87.257 M272.620 87.351 C 272.704 87.663,272.866 88.071,272.982 88.259 C 273.128 88.495,273.146 88.426,273.041 88.032 C 272.957 87.720,272.794 87.311,272.679 87.124 C 272.533 86.888,272.515 86.957,272.620 87.351 M278.986 88.996 L 278.578 89.733 279.046 89.166 C 279.461 88.663,279.645 88.259,279.459 88.259 C 279.424 88.259,279.211 88.590,278.986 88.996 M275.007 92.153 C 276.224 93.720,276.946 93.929,277.365 92.835 C 277.479 92.538,277.433 92.543,277.076 92.866 C 276.454 93.429,276.348 93.381,275.033 91.949 L 273.833 90.641 275.007 92.153 M232.160 176.687 L 232.217 216.109 232.275 176.788 C 232.318 147.192,232.397 137.507,232.594 137.628 C 232.756 137.728,232.793 137.690,232.693 137.528 C 232.604 137.384,232.435 137.266,232.318 137.266 C 232.185 137.266,232.126 152.166,232.160 176.687 M318.621 138.230 C 318.368 138.511,318.091 138.894,318.004 139.081 C 317.917 139.268,318.017 139.192,318.225 138.911 C 318.433 138.630,318.744 138.400,318.916 138.400 C 319.088 138.400,319.229 138.247,319.229 138.060 C 319.229 137.610,319.164 137.628,318.621 138.230 M233.938 139.832 C 233.900 140.205,235.725 143.782,236.111 144.092 C 236.410 144.332,236.386 144.234,236.017 143.709 C 235.746 143.321,235.171 142.249,234.740 141.326 C 234.309 140.403,233.948 139.731,233.938 139.832 M316.477 141.860 C 316.084 142.640,315.509 143.636,315.201 144.073 L 314.641 144.867 315.246 144.186 C 315.837 143.523,317.531 140.442,317.306 140.442 C 317.244 140.442,316.871 141.081,316.477 141.860 M314.047 146.238 C 313.667 147.072,313.739 147.250,314.150 146.492 C 314.342 146.137,314.457 145.805,314.405 145.753 C 314.353 145.701,314.192 145.919,314.047 146.238 M237.734 147.136 C 237.987 147.635,238.362 148.247,238.567 148.497 C 238.772 148.746,238.661 148.440,238.321 147.816 C 237.559 146.420,237.100 145.887,237.734 147.136 M312.505 149.427 C 311.989 150.348,311.654 151.046,311.762 150.980 C 312.014 150.824,313.635 147.930,313.526 147.830 C 313.480 147.788,313.021 148.507,312.505 149.427 M239.411 149.956 C 239.693 150.447,239.963 150.810,240.011 150.762 C 240.109 150.664,239.155 149.064,238.999 149.064 C 238.943 149.064,239.129 149.466,239.411 149.956 M310.852 152.637 C 310.697 152.980,310.017 154.140,309.341 155.215 C 308.664 156.289,308.111 157.253,308.111 157.358 C 308.111 157.565,310.407 153.965,310.973 152.872 C 311.164 152.501,311.279 152.156,311.228 152.105 C 311.176 152.054,311.007 152.293,310.852 152.637 M240.726 153.005 C 240.726 153.243,243.224 157.459,243.365 157.459 C 243.489 157.459,243.318 157.146,241.878 154.736 C 241.245 153.676,240.726 152.897,240.726 153.005 M244.223 159.463 C 244.631 160.252,246.171 162.120,246.171 161.826 C 246.171 161.709,245.957 161.419,245.694 161.181 C 245.432 160.944,244.962 160.315,244.651 159.785 C 244.017 158.702,243.711 158.472,244.223 159.463 M306.577 160.692 C 305.626 162.296,305.141 163.237,305.546 162.695 C 306.088 161.967,307.240 159.955,307.113 159.955 C 307.059 159.955,306.817 160.286,306.577 160.692 M247.313 165.540 C 247.305 165.807,249.071 168.123,249.281 168.123 C 249.348 168.123,249.050 167.689,248.619 167.158 C 248.188 166.628,247.719 165.990,247.577 165.740 C 247.436 165.491,247.316 165.401,247.313 165.540 M303.438 166.931 C 303.103 167.524,302.610 168.366,302.341 168.803 C 302.073 169.240,301.532 170.261,301.139 171.072 C 300.746 171.883,300.239 172.752,300.013 173.004 C 299.788 173.255,299.464 173.663,299.294 173.911 C 299.124 174.159,299.358 173.957,299.815 173.461 C 300.271 172.966,300.966 171.894,301.358 171.079 C 301.751 170.264,302.239 169.342,302.442 169.030 C 303.078 168.055,304.263 165.854,304.152 165.854 C 304.094 165.854,303.772 166.339,303.438 166.931 M249.364 168.463 C 249.364 168.588,249.510 168.945,249.688 169.257 C 249.866 169.569,250.012 169.722,250.012 169.597 C 250.012 169.472,249.866 169.115,249.688 168.803 C 249.510 168.491,249.364 168.338,249.364 168.463 M250.483 171.190 C 250.482 171.421,251.563 173.127,251.846 173.341 C 251.928 173.403,252.111 173.659,252.253 173.908 C 252.395 174.158,252.513 174.242,252.517 174.096 C 252.521 173.949,252.282 173.541,251.986 173.188 C 251.691 172.835,251.232 172.189,250.966 171.753 C 250.701 171.316,250.483 171.063,250.483 171.190 M253.663 177.486 C 253.657 177.737,254.657 179.237,255.363 180.034 L 255.965 180.715 255.436 179.955 C 255.145 179.538,254.628 178.772,254.287 178.254 C 253.946 177.735,253.665 177.390,253.663 177.486 M296.313 179.844 C 295.627 180.786,294.670 182.010,294.186 182.564 C 293.703 183.117,293.352 183.615,293.407 183.669 C 293.461 183.724,294.112 182.989,294.853 182.036 C 295.593 181.083,296.531 179.902,296.937 179.410 C 297.549 178.668,297.868 178.063,297.618 178.118 C 297.587 178.125,296.999 178.901,296.313 179.844 M256.381 181.509 C 256.648 181.883,256.917 182.189,256.979 182.189 C 257.042 182.189,256.875 181.883,256.608 181.509 C 256.341 181.134,256.072 180.828,256.010 180.828 C 255.948 180.828,256.115 181.134,256.381 181.509 M257.289 182.614 C 257.289 182.711,257.544 183.031,257.856 183.324 C 258.168 183.617,258.423 183.793,258.423 183.714 C 258.423 183.636,258.168 183.316,257.856 183.004 C 257.544 182.692,257.289 182.517,257.289 182.614 M271.088 185.763 C 273.997 185.799,278.694 185.799,281.524 185.763 C 284.355 185.727,281.974 185.697,276.234 185.697 C 270.493 185.697,268.178 185.727,271.088 185.763 M319.585 217.243 C 319.666 217.493,319.827 218.026,319.943 218.429 C 320.362 219.880,323.056 222.581,324.076 222.573 C 324.217 222.572,323.812 222.272,323.174 221.906 C 321.911 221.182,320.924 220.142,320.475 219.065 C 320.007 217.939,319.428 216.755,319.585 217.243 M231.440 217.640 C 231.329 217.921,231.104 218.508,230.941 218.945 C 230.534 220.033,229.127 221.509,228.023 222.007 C 227.520 222.234,227.151 222.462,227.203 222.514 C 227.388 222.699,228.828 221.831,229.684 221.019 C 230.627 220.123,231.005 219.509,231.502 218.065 C 231.839 217.088,231.789 216.754,231.440 217.640 M395.942 218.076 C 395.928 218.284,395.857 218.641,395.785 218.870 C 395.662 219.264,395.668 219.264,395.914 218.881 C 396.057 218.659,396.127 218.301,396.071 218.087 C 395.979 217.736,395.966 217.735,395.942 218.076 M395.462 219.557 C 395.462 220.049,394.028 221.581,393.010 222.176 C 392.425 222.518,392.053 222.799,392.185 222.800 C 393.087 222.807,396.058 219.919,395.609 219.470 C 395.528 219.389,395.462 219.428,395.462 219.557 M343.920 223.653 C 351.947 223.686,365.016 223.686,372.961 223.653 C 380.907 223.620,374.339 223.593,358.366 223.593 C 342.394 223.593,335.893 223.620,343.920 223.653 " stroke="none" fill="#040404" fill-rule="evenodd"></path></g></svg>